<?xml version="1.0" encoding="UTF-8"?>
<svg id="Layer_2" data-name="Layer 2" xmlns="http://www.w3.org/2000/svg" viewBox="0 0 271.41 425.98">
  <defs>
    <style>
      .cls-1 {
        fill: #45443c;
      }
    </style>
  </defs>
  <g id="Layer_1-2" data-name="Layer 1">
    <path class="cls-1" d="M73.03,314.64c2.95,5.53,6.21,10.8,9.75,15.91-14.36-22.15-23.71-48.03-28.16-75-4.43-26.98-3.97-55.08,1.01-82.01,5.06-26.94,14.39-52.9,28.53-73.51,3.48-5.19,7.35-9.95,11.43-14.36,1.04-1.08,2.02-2.22,3.1-3.24l3.21-3.06c1.06-1.03,2.22-1.92,3.31-2.88l1.66-1.42c.56-.45,1.13-.84,1.69-1.27,8.85-6.86,19.08-11.85,29.37-14.89,1.32-.24,2.97-.54,4.79-.88,1.81-.26,3.79-.43,5.74-.69,1.94-.09,3.88-.18,5.65-.26,1.76.07,3.33.11,4.58.13.62-.07,1.24-.02,1.86-.02.62,0,1.24.02,1.86.03.62,0,1.24,0,1.86,0,.62.03,1.23.11,1.84.15,1.22.13,2.47.15,3.69.31,1.2.21,2.41.4,3.63.56,4.79.94,9.45,2.28,13.83,4.24,1.99.91,3.85,1.95,5.76,3.16,1.87,1.26,3.71,2.67,5.5,4.23,1.79,1.55,3.46,3.33,5.06,5.18,1.61,1.85,3.07,3.85,4.4,5.94,2.7,4.15,4.73,8.68,6.11,13.15,1.31,4.48,1.95,8.89,1.81,12.9,0,1.01-.12,1.98-.18,2.95-.16.94-.25,1.89-.47,2.79-.38,1.81-.86,3.55-1.57,5.18-1.3,3.29-3.32,6.29-5.34,8.41-2.04,2.14-3.62,3.65-4.98,4.96-.17.14-.35.32-.51.49-.12.11-.23.25-.35.4-.11.17-.28.25-.41.41l-.22.23-.24.18c-.64.58-1.41.98-2.17,1.44-1.53.81-3.01,1.34-4.08,1.7-.49.13-.95.28-1.24.37-.29.08-.44.11-.44.11-1.4.01-2.93.09-4.1.35-.61.16-1.09.3-1.38.71-.14.19-.24.46-.23.74,0,.28.09.61.25,1.02,1.05,1.23,3.13,2.69,5.93,3.78,1.41.52,2.98.9,4.58,1.15,1.61.25,3.24.25,4.78.19.38-.04.76-.06,1.13-.08.36-.05.72-.11,1.08-.16.35-.03.72-.11,1.09-.19.37-.08.74-.15,1.09-.22,1.41-.38,2.73-.73,3.86-1.13,1.14-.34,2.08-.72,2.82-.83.71-.18,1.21-.16,1.41.12.1.14-.09.42-.5.83-.41.39-1.07.85-1.87,1.38-1.62,1.02-3.91,2.05-6.26,2.72.18.68-.44,1.72-1.76,2.92-1.34,1.13-3.46,2.33-6.02,3.1-2.55.78-5.49,1.05-8.13.84-2.64-.21-4.97-.88-6.32-1.66-1.54-.43-4.94-1.78-8.47-4.95-1.75-1.58-3.57-3.59-4.89-6.09-1.37-2.47-2.36-5.33-2.88-8.33-1.09-6.01.06-12.51,2.43-17.29,1.21-2.37,2.58-4.39,3.94-5.83.34-.37.65-.72.95-1.04.29-.34.63-.57.9-.83.57-.5,1.04-.93,1.39-1.27,2.92-3.34,2.22-4.11-.76-3.16-.37.12-.78.26-1.22.43-.27.11-.55.22-.84.34-.35.15-.72.3-1.11.46-1.58.6-3.19,1.61-4.95,2.82-3.44,2.51-6.93,6.47-9.44,11.7-1.31,2.59-2.22,5.52-2.93,8.62-.58,3.11-.97,6.43-.75,9.81.22,6.78,2.52,13.75,6.45,19.67,1.04,1.43,2.03,2.9,3.27,4.23.6.67,1.19,1.37,1.83,1.99.65.61,1.29,1.22,1.93,1.82.64.62,1.32,1.14,2,1.68.68.53,1.35,1.08,2.05,1.56,1.4.93,2.79,1.91,4.21,2.66,5.68,3.2,11.44,4.98,16.54,5.79,2.55.41,4.49.7,5.92.85,1.43.18,2.34.38,2.85.54,1.02.34.39.86-.95,1.38-1.33.47-3.4,1.04-5.15,1.39-1.75.39-3.21.78-3.27,1.27,5.66.44,10.63.21,15.29-.38,2.32-.26,4.59-.75,6.76-1.21,2.07-.53,4.11-1.05,6.06-1.74,3.94-1.33,7.74-3,11.47-5.25,3.74-2.24,7.46-5.03,11.08-8.67.06.06.81-.53,2.12-1.69,1.26-1.18,3.05-2.94,5.06-5.26,4.02-4.63,8.87-11.58,12.57-20.17,3.71-8.56,6.13-18.66,6.63-28.19.63-9.55-.54-18.41-2.03-25.24,0,0-.14-.57-.53-1.82-.4-1.24-.92-3.22-1.87-5.93-1.89-5.42-4.98-14.09-12.18-25.54-1.19-1.91-2.2-3.27-3-4.26-.79-.99-1.35-1.63-1.81-1.99-.89-.74-1.16-.53-1.43-.32q.54-.41,1.09-.83c-3.24-3.2-7.59-8.32-12.53-13-4.89-4.71-10.37-8.95-14.46-11.14q.37-.58.74-1.15c-4.15-2.19-8.3-4.34-12.67-6.18-1.09-.51-2.13-.86-3.18-1.28l-3.16-1.21-3.16-1.2c-1.06-.38-2.14-.67-3.21-1-2.15-.64-4.3-1.31-6.46-1.88-2.18-.47-4.36-.93-6.55-1.36-2.19-.49-4.38-.67-6.58-.91-2.2-.19-4.41-.5-6.59-.44q.04-.68.08-1.36c-2.22-.08-4.43-.17-6.5-.25-2.07-.05-3.97.06-5.62.06-1.64.02-3.02.01-3.98-.04-.96-.04-1.51-.08-1.52-.26q-.06-.68-.11-1.36c-2.21.06-4.97.31-7.86.66-2.84.47-5.8,1.08-8.48,1.62-5.3,1.28-9.48,2.42-9.68,1.74q.19.66.37,1.32c-2.05.64-4.07,1.28-6.07,1.9-.99.32-1.98.62-2.95.96-.96.36-1.91.73-2.85,1.08-1.88.73-3.74,1.44-5.57,2.15-1.78.8-3.54,1.6-5.28,2.38-.87.39-1.73.79-2.58,1.18-.85.4-1.67.85-2.49,1.28-1.64.86-3.27,1.71-4.87,2.56-1.61.83-3.11,1.82-4.65,2.71-1.52.92-3.04,1.8-4.5,2.74-1.44.98-2.87,1.96-4.29,2.92-1.41.98-2.84,1.9-4.16,2.96-1.34,1.04-2.67,2.07-3.99,3.09-.66.52-1.31,1.03-1.97,1.54-.61.53-1.22,1.06-1.83,1.58-2.42,2.12-4.88,4.17-7.11,6.4-1.14,1.1-2.27,2.2-3.4,3.29-1.13,1.09-2.16,2.26-3.24,3.4-1.42,1.52-2.95,3-4.3,4.6-1.37,1.6-2.75,3.21-4.15,4.83-1.37,1.64-2.64,3.35-3.96,5.05-.65.86-1.31,1.72-1.96,2.58-.62.88-1.24,1.77-1.86,2.65-1.22,1.78-2.52,3.55-3.67,5.4-1.15,1.84-2.32,3.7-3.48,5.57-1.13,1.88-2.18,3.8-3.28,5.72-1.11,1.92-2.11,3.88-3.11,5.85-2.07,3.93-3.87,7.97-5.71,12.04-.85,2.05-1.7,4.11-2.56,6.17-.86,2.07-1.59,4.16-2.38,6.26-3.05,8.4-5.71,16.98-7.86,25.67-4.31,17.36-7,35.37-7.92,53.32-.9,17.96-.1,35.88,2.27,53.15.94,7.72,3.62,15.1,3.73,7.28,1.15,7.6,2.61,15.19,4.38,22.69,1.84,7.51,2.94,9.22,3.95,10.93,1.02,1.71,2.01,3.42,4.43,10.73,5.38,14.46,12.02,28.52,20.13,41.8,1.99,3.34,4.16,6.58,6.31,9.82,2.25,3.18,4.46,6.39,6.88,9.47,2.33,3.13,4.86,6.12,7.35,9.12l3.88,4.4c1.29,1.47,2.68,2.88,4.02,4.32,10.94,11.35,23.37,21.59,37.58,29.8,14.2,8.19,30.23,14.28,47.56,16.48,17.53,2.16,35.27.1,51.94-6.33,8.32-3.23,16.36-7.62,23.71-13.28,7.37-5.66,13.92-12.55,19.3-20.61,5.5-8.36,9.13-17.54,11.12-26.87,1.98-9.35,2.34-18.9,1.08-28.37-1.27-9.45-4.21-18.88-9.13-27.64-4.89-8.74-11.95-16.77-20.61-22.68,8.49,6.18,14.71,13.91,19.03,21.79,4.32,7.92,6.91,16.03,8.25,24.14,1.34,8.12,1.53,16.27.51,24.59-1.03,8.32-3.19,16.86-7.2,25.54-.31-.15-.77-.37-1.69.49-.93.85-2.22,2.8-4.8,6.75l-.74,1.1-.77,1.02-1.56,2.04-1.58,2.03c-.52.69-1.13,1.29-1.69,1.94-1.16,1.27-2.3,2.56-3.51,3.79-1.25,1.17-2.51,2.35-3.76,3.52-5.16,4.51-10.77,8.49-16.67,11.68-5.91,3.15-12.02,5.71-18.17,7.58-1.53.48-3.08.84-4.62,1.26-.77.2-1.53.39-2.3.59-.77.15-1.54.3-2.31.46-1.53.29-3.05.62-4.58.85-1.53.2-3.04.39-4.54.59-6.02.62-11.89.8-17.47.36-1.39-.11-2.77-.16-4.13-.35-1.35-.19-2.69-.37-4-.55-1.33-.16-2.58-.42-3.8-.68-1.23-.26-2.43-.51-3.62-.76-9.41-2.25-16.94-5.47-22.15-8.48-3.54-1.89-6.83-4.21-11.67-7.54-1.19-.86-2.48-1.78-3.9-2.76-1.39-1.01-2.91-2.11-4.57-3.31-1.66-1.19-3.4-2.57-5.36-3.99-.95-.74-1.94-1.52-2.98-2.33-1.04-.8-2.13-1.64-3.22-2.55,5.93,4.77,12.22,9.15,18.91,13.01.34-.59,1.02-1.78,1.02-1.78-13.04-7.87-25.94-18.9-36.86-31.42-10.88-12.51-20.03-26.36-26.58-39.38,0,0,1.2-.65,1.8-.97-1.18-2.09-2.23-4.25-3.32-6.4-1.11-2.13-2.07-4.33-3.09-6.5-.42-3.76,1.32-2.04,4.35,3.03,3.14,5.03,7.84,13.33,14.13,22.44,6.26,9.12,14.22,18.94,22.74,27.47,4.25,4.28,8.66,8.2,12.97,11.61,2.12,1.75,4.29,3.27,6.31,4.78,1.04.71,2.06,1.39,3.04,2.06.98.67,1.94,1.3,2.89,1.87.37-.57,1.12-1.72,1.49-2.29-.99-.61-1.94-1.27-2.89-1.94l-2.85-1.99-2.77-2.1c-.93-.69-1.85-1.4-2.73-2.15l.86-1.06c4.03,3.23,8.11,6.22,12.32,8.86,2.07,1.38,4.23,2.56,6.34,3.81,1.08.57,2.16,1.14,3.23,1.71l1.61.84,1.64.77c4.33,2.14,8.82,3.81,13.31,5.32,2.28.67,4.52,1.4,6.83,1.9,1.15.26,2.29.59,3.45.79l3.48.64c4.65.72,9.35,1.18,14.08,1.09,2.37.05,4.73-.17,7.11-.32,1.19-.06,2.37-.29,3.56-.42,1.19-.17,2.38-.28,3.56-.54,1.18-.23,2.37-.46,3.55-.69,1.18-.25,2.35-.6,3.53-.9l1.77-.46c.59-.16,1.16-.38,1.75-.57,1.16-.39,2.33-.78,3.5-1.17,4.61-1.79,9.17-3.92,13.53-6.62-.74.43-1.57.91-2.47,1.44-.45.26-.92.53-1.4.82-.48.28-1.01.51-1.54.77-1.06.52-2.16,1.06-3.29,1.61-1.16.48-2.35.96-3.54,1.45-1.17.52-2.4.9-3.59,1.3-1.2.37-2.34.84-3.49,1.11-2.28.58-4.33,1.2-6.03,1.47-.07-.33-.14-.67-1.02-.76-.88-.09-2.55.12-5.89.51,6.68-.82,13.7-2.48,20.53-5.22,6.82-2.73,13.45-6.55,19.18-11.44,1.42-1.23,2.75-2.57,4.12-3.85,1.23-1.42,2.53-2.77,3.68-4.23l1.66-2.24c.56-.74,1.11-1.48,1.58-2.27l.73-1.16.67-1.19c.46-.79.87-1.6,1.26-2.41,3.19-6.51,4.81-13.51,5.1-20.08-.08-3.32-.77-3.29-1.7-.17-1.05,3.07-2.38,9.38-6.61,17.53-1.03,2.04-2.1,3.95-3.28,5.69-.59.88-1.27,1.7-1.89,2.54-.63.83-1.22,1.67-1.93,2.41-.68.76-1.35,1.51-2.02,2.25-.66.75-1.43,1.38-2.13,2.07-.73.66-1.38,1.4-2.17,1.98l-2.29,1.84c-.74.64-1.56,1.18-2.38,1.73-.81.56-1.63,1.12-2.45,1.68-.86.5-1.73,1.01-2.61,1.51-.44.26-.88.51-1.32.77-.45.25-.92.46-1.39.69-.93.46-1.88.92-2.83,1.39-.97.44-1.99.82-3.01,1.25-.51.21-1.03.42-1.55.64-.52.2-1.07.36-1.62.55-1.09.36-2.2.73-3.34,1.1l-.39-1.31c6.02-1.72,13.31-4.73,19.7-9.08,1.65-1.02,3.1-2.27,4.6-3.44.77-.56,1.41-1.25,2.09-1.88.67-.64,1.34-1.28,1.99-1.9.59-.68,1.18-1.35,1.75-2.02.56-.67,1.18-1.28,1.63-1.99.48-.69.95-1.36,1.41-2.02.46-.66.91-1.29,1.25-1.94.66-1.32.47-1.43-.12-.95-.3.24-.7.63-1.14,1.08-.48.45-1.04.96-1.59,1.47-.54.5-1.09,1.01-1.56,1.45-.48.43-.98.73-1.3.93-.67.39-.82.24.01-.93.94-1.09,1.73-2.28,2.61-3.41.83-1.15,1.52-2.31,2.18-3.54,1.29-2.45,2.28-5.09,2.86-7.85-.66,1.99-1.5,3.99-2.49,5.96-.48,1-1.05,1.95-1.6,2.94-.3.47-.6.95-.91,1.43-.3.48-.69.95-1.04,1.43-.35.48-.71.96-1.06,1.45-.35.49-.7.98-1.13,1.42-.81.92-1.62,1.84-2.43,2.77-.9.86-1.79,1.73-2.7,2.6-.92.85-1.95,1.61-2.91,2.43-4,3.12-8.49,5.73-13.1,7.71-4.59,2.03-9.37,3.24-13.79,4.03-3,.31-6.02.31-8.27.13-2.26-.28-3.74-.69-3.77-1.37-7.26.47-14.04-.4-20.54-2.14-6.45-1.73-12.34-4.3-17.58-7.31-5.25-3.02-9.85-6.47-13.84-10.05-4-3.58-7.4-7.28-10.24-10.97-1.83-2.52-8.44-8.74-15.32-17.15-3.46-4.15-6.91-8.83-10.12-13.46-1.51-2.38-3.1-4.64-4.42-6.95-.68-1.14-1.35-2.25-1.99-3.33-.61-1.1-1.19-2.17-1.75-3.2Z"/>
  </g>
</svg>