<?xml version="1.0" encoding="UTF-8"?>
<svg id="Layer_2" data-name="Layer 2" xmlns="http://www.w3.org/2000/svg" viewBox="0 0 260.05 318.07">
  <defs>
    <style>
      .cls-1 {
        fill: #45443c;
      }
    </style>
  </defs>
  <g id="Layer_1-2" data-name="Layer 1">
    <g>
      <path class="cls-1" d="M54.98,246.95v4.51c3.42-25.56,2.05-52.64,6.84-76.7.68-1.51,2.05-4.51,2.73-6.02,2.05-12.03,1.37-27.07,0-39.1-.69-6.02-8.2-10.53-8.2-10.53-1.37-1.51-4.1-3.01-5.47-1.51-.68,3.01-.68,10.53-3.42,10.53-.68,0-.68-1.5-.68-3-2.73,0-8.2-4.51-8.2-6.01-1.37-1.51-5.47-10.53-6.83-12.03-2.05-4.51-12.3,9.02-14.35,15.04-1.37,3.01-3.42,0-5.47,0,.68,3.01-1.37,4.52-.68,7.52-.69,0-1.37,9.02-1.37,13.53,0,0,.68,1.5.68,6.01,0,1.51.69,1.51,1.37,1.51h-1.37c1.37,1.51,0,4.52.69,6.02h-1.37c1.37,3,0,6.01.68,9.02h-1.37c0,1.51,0,3.01-.68,3.01h-1.37c-.68,1.51.69,4.51-.68,4.51h1.37c0,6.02-.69,10.53-1.37,15.04-2.73,12.03-1.37,27.07,0,40.61,0,1.5,1.37,3.01,2.73,1.5v4.51c0,3.01,2.05,1.5,2.05,4.51,3.42,24.07,0,48.14,2.05,72.2.68-6.02,2.05-10.53,1.37-16.54.68,0,2.05,0,2.05-1.5.68-9.03-.68-19.55,2.05-24.07.68-1.51,2.73-3.01,2.73-7.52v4.52h2.05c.68-6.02,1.37-13.54,2.05-19.56h2.05v-3.01c4.79-3.01,4.1,13.54,4.79,21.06h2.73v-3.01h1.37v25.57-6.02c.68,0,1.37,0,1.37-1.5,0,6.02-.69,13.54.68,19.55.68,1.5,2.73,0,3.42-4.51v-12.04h1.37c0,3.01-.68,7.52,0,10.53.69,1.5,2.05-3.01,2.73-1.51,0,1.51,0,3.01.68,4.52,0-4.52-.68-10.53,0-15.05.68-1.5,1.37-3.01,2.73-3.01-.68-7.52,1.37-13.53,4.78-18.05,1.37-1.5.68-9.03.68-13.54Z"/>
      <path class="cls-1" d="M34.31,35.56c.19.04.45.05.79.07-1.52-.07-1.28-.39.45.52.78.43,1.79,1.12,2.58,1.9.19.17.4.43.56.6.16.17.32.36.46.58.14.21.23.3.34.5.05.08.1.19.15.27.03.05.06.1.09.15.03.05.06.12.08.18.03.07.05.15.05.14.01.03.03.07.05.13-.01-.02-.03-.2-.02-.17v.03s0,.02,0,.02v-.05c0-.08,0-.14.02-.18.01-.15.04-.29.07-.41.02-.04.04-.13.06-.24.02-.1.05-.19.08-.28.24-.77.74-1.71,1.36-2.61.6-.88,1.33-1.59,1.82-2.01.15-.12.26-.23.42-.34.09-.06.17-.12.23-.16.1-.07-.08.08-.82.35-.16.05-.39.14-.61.2l-.17.04-.09.02h-.02s-.01,0-.01,0h0c-4.99,1.3,6.79-1.77,5.58-1.45h0s.05-.02.05-.02l.43-.11.97-.2.59-.1.65-.09c.52-.08,1.03-.14,1.53-.17.64-.07,1.29-.12,1.93-.15.57-.02,1.14-.05,1.7-.07-.05.01-.1-.03-.15-.06-.22-.14-.51-.51-.78-1.09-.15-.25-.68-.66-1.45-1.04-.74-.43-1.69-.87-2.61-1.31-1.83-.89-3.61-1.6-3.61-1.6-1.25-.75-3.82-1.83-5.26-1.56-.44.48-.79,1.36-1.32,2.02-.55.68-1.29,1.16-2.65.99-.67-.09-.61-.59-.53-1.11-1.35-.21-3.31-.92-4.91-1.72-1.6-.79-2.83-1.66-2.77-1.96-1.25-.83-4.44-5.5-5.62-6.44-.79-1.16-4-.92-7.34-.03-3.34.87-6.84,2.6-8.13,4.04-1.62,1.4-3.37-.58-5.39-.94.39,1.8-1.78,2.38-1.33,4.39-.34-.05-.86,1.35-1.26,3.29-.39,1.96-.6,4.54-.52,6.35,0,0,.17.28.4,1.05.22.75.46,1.95.72,3.86.18,1.28.88,1.18,1.55,1.06q-.67.11-1.35.22c.79.54.93,1.47,1.08,2.47.07.5.12,1,.22,1.45.09.43.3.96.56,1.27q-.66.19-1.31.38c1.1,1.37,1.62,2.81,2.13,4.28.51,1.45,1.02,2.93,2.05,4.1q-.6.33-1.2.65c.75,1.38,1.58,2.69,1.02,3.06q-.58.37-1.15.74c.17.87.98,1.82,1.68,2.59.69.78,1.21,1.43.68,1.86q.53-.43,1.07-.86c2.06,2.56,4.03,4.78,6.14,6.83.53.51,1.06,1.01,1.57,1.51.54.49,1.12.98,1.67,1.45.57.47,1.11.94,1.72,1.39.61.45,1.24.9,1.87,1.33,3.31,2.49,7.71,4.64,13.02,5.62,5.29.99,11.15.72,16.72-.9,5.64-1.6,10.62-4.63,14.43-8.01,1.97-1.71,3.52-3.48,4.98-5.31.67-.9,1.31-1.8,1.92-2.72.62-.92,1.09-1.8,1.61-2.71,1.06-1.56.62-3.69-1.36-2.94.82-1.42,1.65-2.89,2.28-4.34,1.28-2.93-1.22-2.25-.2-5.06.3-1.48.46-2.96.65-4.42.12-1.49.28-2.92.29-4.42.12-2.93-.07-5.97-.48-9.05-.81-5.16-2.23-9.89-3.91-13.87-1.67-4.03-3.55-7.41-5.47-10.26-1.93-2.87-3.87-5.16-5.88-6.99,1.08,2.57,1.31,5.14,3.69,7.44-.56.39-1.7,1.13-1.24,1.83,1.07,2.23,2.7,4.6,3.87,7.11,1.16,2.49,1.82,5.08,1.01,7.01-.16.61-.63,1.28-1,2.19-.37.91-.58,1.98-.28,3.49l-.33-1.49-.39-1.44c-.66.19-1.97.56-1.97.56.1.95.17,1.97.21,3.03.03.52.02,1.07.02,1.61,0,.55,0,1.05-.05,1.7-.07,2.47-.6,4.73-1.19,6.65,0,0-1.35-.2-2.03-.3l-.33,1.8c-1.28.18-2.02-.31-2.51-1.09-.24-.4-.41-.87-.53-1.4-.15-.53-.25-1.12-.32-1.73-.1-.62-.19-1.27-.27-1.93-.13-.66-.22-1.35-.35-1.97-.27-1.23-.6-2.38-.99-3.21-.66.17-1.98.51-2.65.69.13.42.19.85.29,1.27l-1.34.27c-.77-3.6-2.1-6.47-4.02-9.72.33.54.95,1.63,1.24,2.19-.61.32-1.2.64-.94,1.17-1.06-2.13-2.19-5.16-4.77-6.41-.93-.12-2.19,1.6-1.77,3.44.98,1.46,1.58,2.42,2.37,3.86l-1.2.65c-.49-.91-.77-2.69-1.99-3.27-.87-.08-1.1,2.06-1.98,1.96-.29-.45-.59-.91-1.48-.98.95,1.36,2.64,2.78,2.68,4.34-.39.73-.83,1.41-2.05,2,1.48,1.5-.13,3.53-3.47,4.42-.34.09-.54.17-.66.24-.03.02-.05.04-.07.05-3.48.41,4.74-.56,3.89-.46h0s0,0,0,0h0s0,0,0,0h-.02s-.03,0-.03,0h-.07s-.13.03-.13.03c-.18.02-.37.03-.56.04-.38,0-.72.03-1.03-.01-.25,0-.5-.04-.62-.06Z"/>
      <path class="cls-1" d="M228.8,122.22c4.01,4.58,7.26,9.5,9.98,14.43-2.68-5.33-6.09-10.73-10.34-15.73-.51-.63-1.08-1.23-1.63-1.85-.56-.61-1.09-1.21-1.72-1.83l-1.85-1.82c-.63-.59-1.27-1.15-1.91-1.72-2.58-2.25-5.28-4.29-8.14-6.1-5.68-3.67-11.93-6.5-18.68-8.42-3.39-.92-6.88-1.66-10.51-2.02-3.61-.42-7.34-.46-11.1-.19l-2.83.28c-.95.09-1.84.3-2.77.45l-2.75.53-1.37.28-1.37.39c-1.82.55-3.66,1.04-5.43,1.74-1.77.73-3.54,1.45-5.27,2.27-6.9,3.36-12.87,8.07-17.71,13.14-4.86,5.09-8.66,10.55-11.78,15.99-3.12,5.45-5.57,10.92-7.62,16.31-.52,1.35-1.02,2.7-1.47,4.04l-.69,2.01-.59,1.82c-.77,2.41-1.55,4.83-2.32,7.24-.73,2.42-1.45,4.85-2.18,7.26-.72,2.42-1.37,4.86-2.06,7.28-2.66,9.71-5.02,19.46-7.09,29.18-4.06,19.46-7.05,38.84-9,57.82-.95,4.72-2.46,14.25-3.11,19.06-.25,3.88-.27,7.86-.36,11.98l59.41-.64c1.66-33.51,1.33-72.87.38-105-.53-17.88-7.93-31.35-7.93-31.35-1.33-4.49-4.02-8.98-5.43-4.52-.76,8.94-.96,31.26-3.69,31.24-.68,0-.64-4.46-.6-8.93-2.73-.02-8.08-13.47-8.04-17.94-1.33-4.49-5.19-31.33-6.52-35.81-1.93-13.42-12.54,26.7-14.74,44.55-1.44,8.93-3.42-.03-5.47-.05.6,8.95-1.48,13.4-.88,22.35-.34,0-.74,6.69-1.07,15.06-.33,8.37-.59,18.42-.65,25.12,0,0,.64,4.48.53,17.87-.04,4.47.65,4.48,1.33,4.48q-.68,0-1.37-.01c1.33,4.49-.12,13.41.53,17.89q-.69,0-1.37-.01c1.18,8.2.06,16.38.34,24.58l49.88-.54c-.04-.69-.1-1.38-.17-2.08q.68-.02,1.37-.03c-.04-2.09-.08-4.18-.03-5.74.08-1.56.26-2.6.6-2.61q.68,0,1.37,0c.63-4.15-.51-12.48.85-12.44q-.68-.02-1.37-.04c.3-8.32.91-15.59,1.79-22.29.4-3.36.96-6.56,1.43-9.71.58-3.13,1.1-6.21,1.72-9.26,3.68-16.24,7.8-34.36,12.99-52.8.66-2.3,1.33-4.61,2-6.92l.87-2.85.92-2.7c1.25-3.51,2.64-6.66,4.04-9.18,1.4-2.54,2.8-4.4,3.94-5.62,1.17-1.23,2-1.88,3.03-2.43.26-.05.47-.25.66-.48.24-.16.42-.42.53-.7.21-.59.16-1.25-.72-1.77.37-.04.75-.21,1.1-.23.35-.02.68-.11,1.06-.09l.56-.03c.2.02.39.03.59.03.38-.03.82.09,1.24.09.43.06.8.11,1.11.08.31,0,.58,0,.81-.06.45-.12.76-.29,1.08-.46.63-.34,1.31-.76,3.43.12,2.2.71,4.39,1.84,6.31,3.13.43.35.95.66,1.34,1.02l.64.51.69.65c.92.87,1.81,1.82,2.66,2.89,3.45,4.21,6.42,10.22,9.19,17.77.71,1.88,1.38,3.88,2.05,5.86.66,1.98,1.36,3.95,1.99,5.95,1.2,4,2.49,7.98,3.52,12.03,2.25,8.05,3.99,16.23,5.56,24.43,6.05,32.88,6.69,66.47,3.46,99.69,1.32-8.25,2.59-15.49,3.28-22.8.82-7.3,1.05-14.66.66-23.04.69-.01,2.05-.03,1.92-4.26-.01-12.68-1.45-26.37-3.2-38.4-.21-1.5-.42-2.98-.63-4.44-.23-1.45-.46-2.86-.68-4.25-.2-1.39-.4-2.74-.6-4.05-.21-1.31-.41-2.58-.6-3.81-.39-2.45-.65-4.75-.9-6.82-.26-2.07-.42-3.94-.46-5.58-.08-1.07-.07-2.17-.08-3.41-.03-1.23-.07-2.6-.2-4.22-.14-1.62-.33-3.51-.76-5.76-.46-2.24-1.11-4.84-2.03-7.93,1.21,4.12,2.53,8.21,3.58,12.37.66-.18,1.98-.54,1.98-.54-.9-4.23-2.14-8.65-3.31-13.24-1.34-4.51-2.64-9.3-4.14-13.79-1.49-4.48-3.09-8.74-4.96-12.54-.93-1.91-1.91-3.72-2.96-5.39-1.04-1.69-2.13-3.26-3.28-4.69,0,0,1.03-.9,1.55-1.34-.83-.97-1.73-1.9-2.62-2.77-.46-.42-.89-.86-1.36-1.26l-1.43-1.21c-.79-2.05.71-2.16,3.61-.42,1.41.87,3.17,2.27,5.02,4.13,1.84,1.88,3.75,4.24,5.56,7.01,3.64,5.52,6.72,12.64,9.27,19.71,1.24,3.56,2.45,7.04,3.57,10.28,1.04,3.27,2.01,6.3,2.89,8.93.65-.19,1.97-.56,2.63-.75l-2.56-8.56,1.3-.41c4,12.84,7,24.82,9.36,36.92,2.35,12.1,4.11,24.32,5.23,37.73-.22-2.23-.45-5.59-.85-8.94-.41-3.34-.78-6.68-1.08-8.91.68-.09,1.36-.18.7-4.63.72,4.45,1.2,9.21,1.74,14.1.25,2.45.42,4.94.64,7.44.1,1.25.2,2.51.31,3.77l.22,3.79c.37,5.05.53,10.11.81,15.03.1,2.46.2,4.89.3,7.26.06,1.19.13,2.36.19,3.52.05,1.16.09,2.31.14,3.43.28,2.26.96,2.29,1.71.04.35-1.12.8-2.82,1.08-5.09.29-2.27.54-5.11.71-8.53-.11-3.42-.2-6.55-.3-9.54-.14-2.99-.34-5.83-.51-8.67-.14-2.84-.48-5.67-.72-8.65-.23-2.98-.63-6.09-1.03-9.49l1.36-.17c.25,2.27.57,4.83.76,7.54.19,2.71.39,5.56.59,8.41.28,5.71.64,11.4,1.07,15.97.83,4.57,1.76-9.25,2.59-4.7.14,4.62.34,9.22.98,13.84-.01-1.73,0-3.54-.06-5.4-.08-1.86-.16-3.77-.25-5.72-.13-3.9-.5-7.92-.77-11.95-.29-4.03-.75-8.04-1.04-11.92-.42-3.87-.76-7.61-1.04-11.06,0-4.65,0-9.35,1.34-9.57-2.23-11.41-4.14-21.67-5.55-30.93-1.54-9.22-2.49-17.47-3.1-24.71-.15-2.49-1.89-9.03-5.39-17.49-1.73-4.2-3.97-8.83-6.64-13.27-2.63-4.45-5.76-8.67-8.75-12.08Z"/>
    </g>
  </g>
</svg>